<?xml version="1.0" encoding="UTF-8"?>
<svg id="Layer_2" xmlns="http://www.w3.org/2000/svg" viewBox="0 0 544.49 430.77">
  <defs>
    <style>
      .cls-1 {
        fill: #f5f5db;
      }

      .cls-2 {
        fill: #0d65ad;
      }
    </style>
  </defs>
  <g id="Layer_1-2" data-name="Layer_1">
    <g>
      <g>
        <path class="cls-1" d="M524.74,163.12l-18.23-6.67-3.73-.66,8.98-11.02,2.37-37.33-16.91-29.87-29.84-16.95-39.1,3.98-21.43-41.23,1.8,1.53,5.77,2.94,1.8-.9,1.95-.55,1.96-2.86,1.83-10.5-1.01-2.03-3.42-3.11-4.08-.09-2.09-4.34-5.11-3.48-4.25,5.56,1.01,6.84-5.88,1.99-3.4,2.93.71,4.21,4.31,8.91-39.22,15.99-39.28,15.76-12.2-36.28,4.48-3.03,10.7.53,3.5-3.34-.13-5.54-3.43-2.6-42.31.02-1.16.42-4.49,2.07-1.53,2.44,1.61,3.76,21.94,10.12,1.26.42.49-.02,12.19,36.37-8.24,7.58-41.52-15.72-31.59,7.93-22.76,23.3-8.8,31.36,8.12,30.06-1.94-.61-20.3.57-30.43,30.52-9.5-23.84-.22-.33-62.99-29.55-14.1.76-18.69,3.12-.35.1-28.09,8.89L0,175.45l18.6,137.78.92,11.15.31,7.68,1.06,6.49,25.77,26.08,6.76.58,26.64-5.77,20.97-24.45,50.07,20.72,34.66-10.96,3.42.19,6.11-.59,59.69-23.29,37.77,12.7,10.21-.97,11.74,3.17,2.56.1,18.8,12.2,2.72.59,26.74,3.19,8.05.6,12.36.98,23.94,2.01,3.07.15,19.12-6.43,28.53,18.74,7.52.66,43.04-37.04-.55-17.75,1.51-3.93,10.18-33.35,1.11-3.55,8.42-26.21.27-.8,12.41-45.09-19.75-37.91ZM333.16,128.03l4.39,4.59-3.39,3.4-4.72-4.4,3.72-3.59ZM310.22,83l4.37-4.12,12.19,45.47-1.21,1.14-1.76-.03.12-3.83-13.71-38.63ZM323.07,72.25l35.92-14.36,32.12-13.19-16.65,23.25-20.41,26.88-18.35,25.79-12.63-48.37ZM262.42,114.01l-1.36-.78-7.51,9.11,7,7.11,5.5-1.95,39.96,5.97-15.1,25.08-29.4,9.84-37.19-17.7-8.28-40.3,33.96-33.58,40.87,10.17-28.44,27.03ZM272.58,118.27l25.57-24.24,9.9,28.08v.86s-35.47-4.7-35.47-4.7ZM452.41,129.71l8.21-7.72-5.79-6.96-18.69-36.53,16.55-3.74,33.03,14.32,13.42,32.98-17,35.86-1.48.37-1,.92-37.83,7.97-22.87-12.2-12.1-23.12,2.88-27.97,17.04-20.2,18.79,35.62-1.31,3.63,8.15,6.78ZM393.58,172.84l-1.3.69-13.02-8.34-17.83-2.97-11.14,1.16-20.71,14.73-8.26-3.56-22.24-3.74,1.84-.66,20.9-34.77,2.68.24,9.18,8.24,8.56-5.45,20.99,3.42,1.08-.75,4.7-4.33-4.19-5.93-21.21-2.47-.33-.74,20.75-28.38,21.71-28.81,19.56-27.26,13.94,26.08-21.15,21.93-8.13,30.31-.1.39,8.31,31.45,14.82,15.09-19.4,4.44Z"/>
        <g>
          <path class="cls-2" d="M115.12,227.46c-6.48,12.32-15.04,21.56-25.29,27.49-6.23,3.56-14.14,5.94-23.74,6.94-2.88.3-5.59.39-8.3.48l12.03,67.09c-9,3.07-14.87,4.46-17.64,3.97l-1.06-6.49c.32-2.56-.09-8.34-.99-16.98-.56-5.38-6.74-51.72-18.72-138.82,4.66-1.84,12.93-4.45,25.01-7.85,4.72-1.27,9.33-1.75,13.75-2.21,23.24-2.42,39.1,2.53,47.58,15.05,3,4.54,4.73,9.99,5.35,15.95,1.18,11.33-1.46,23.26-7.97,35.39ZM93.42,177.49c-6.91-2.97-15.75-3.99-26.15-3.1-4.23.44-11.21,2.33-21.15,5.7l9.69,68.89c2.92.08,5.63,0,8.7-.32,12.7-1.13,22.37-5.24,29.02-12.15,6.51-6.5,10.95-16.09,13.3-28.95.77-3.77.78-7.46.42-10.92-.94-9.03-5.48-15.35-13.84-19.14Z"/>
          <path class="cls-2" d="M151.44,310.16c7.19,0,17.37-7.54,22.46-14.91l8.07,6.84s-10.18,21.93-30.88,21.93c-15.79,0-28.77-10.35-33.16-18.25-5.61-10-8.42-24.74-8.42-35.79,0-7.02,1.23-14.03,3.68-20.17,7.19-17.72,18.07-25.61,32.1-24.74,22.28,1.4,33.16,17.37,32.63,47.89l-54.74,9.65c4.56,18.25,16.14,27.54,28.24,27.54ZM159.87,245.95c-2.63-5.79-7.72-8.95-15.44-9.47-7.02-.35-12.81,3.86-17.37,12.63-3.86,7.37-5.61,14.74-5.44,22.28l40.88-7.19c-.18-8.6-1.05-14.74-2.63-18.25Z"/>
          <path class="cls-2" d="M248.16,280.76c-8.89,18.15-28.49,26.5-58.99,32.49l-3.81-129.59c9.26-.36,15.61-.54,19.06-.54,16.33,0,28.86,3.27,37.39,10.53,9.8,8.35,14.52,21.96,14.52,41.93,0,18.88-2.72,33.94-8.17,45.19ZM230.37,202.35c-7.26-5.26-17.61-7.44-31.22-6.9l2.54,99.82c19.78-1.27,30.13-13.61,34.85-23.23,4.72-9.62,5.81-26.14,5.81-39.75,0-14.52-3.99-24.14-11.98-29.95Z"/>
          <path class="cls-2" d="M316.95,304.35l-1.4-15.61c-6.67,8.42-14.03,13.33-22.81,13.33-7.72,0-14.03-2.28-19.3-6.84-5.61-4.91-8.6-11.4-8.6-19.65,0-2.81.35-5.79,1.05-8.77,1.93-8.25,5.61-14.74,10.7-19.12,4.91-4.21,10.7-6.14,17.19-6.14,7.37,0,14.39,2.46,21.05,7.54l-.18-7.89c-.18-7.54-.18-10.7-.53-12.98-.88-6.49-3.33-10.35-6.84-11.4-2.81-1.05-8.42-1.75-11.23-1.4-2.63.35-6.14,2.11-9.12,3.51-4.03,2.11-6.67,4.03-8.25,5.61-1.58-1.23-2.46-3.51-3.33-6.84-.7-3.16-1.23-5.79-1.23-8.07,6.67-4.91,14.74-7.19,24.39-7.19,4.39,0,8.6.7,12.46,2.11,7.02,2.28,11.93,7.37,14.21,15.44,1.58,4.56,2.11,11.75,2.11,21.23,0,3.68-.18,1.05-.35,9.3-.18,8.42-.18,12.1-.18,16.49,0,11.23,0,26.32,4.91,30.35-7.54,5.09-9.82,7.37-14.74,7.02ZM294.32,252.07c-9.47,0-16.49,11.58-16.49,20,0,13.33,6.32,18.95,15.26,18.95s18.42-12.28,20.88-20l1.75-5.79-4.91-5.09c-4.03-4.21-10.35-8.07-16.49-8.07Z"/>
          <path class="cls-2" d="M412.92,324.09c-12.24-1.18-24.5-2.02-36.75-3.03-12.95-1.04-23.3-1.45-30.43-3.13l-2.96-.64.95-6.28c4.41-27.22,6.93-46.61,8.09-58.15l4.94-58.45c4.25-.89,8.27-.55,12.43.84l-.59,6.12-4.36,52.68c-.94,10.5-3.38,27.96-7.16,52.39l57.03,5.23c.54,4.23.19,8.44-1.19,12.42Z"/>
          <path class="cls-2" d="M428.8,310.73l3.62-21.43c-7.71,6.85-15.5,10.26-23.8,8.79-7.3-1.29-12.89-4.51-17.1-9.7-4.49-5.58-6.22-12.22-4.84-20.02.47-2.66,1.3-5.42,2.46-8.12,3.21-7.47,7.78-13,13.32-16.29,5.35-3.16,11.15-4.01,17.29-2.93,6.97,1.23,13.19,4.73,18.64,10.66l2.27-13.8c1.1-7.16,1.63-10.15,1.68-12.36.26-6.28-1.42-10.35-4.56-11.93-1.4-.76-2.87-1.19-4.53-1.49-1.99-.35-4.31-.76-6.69-.84-2.55-.11-5.32.08-8.37.91-4.17,1.32-6.98,2.7-8.74,3.93-1.29-1.43-1.74-3.73-2.01-7.03-.13-3.1-.19-5.68.19-7.84,7.13-3.53,15.14-4.33,24.26-2.72,4.15.73,8.01,2.1,11.43,4.08,6.25,3.33,10.05,8.97,10.85,16.98.73,4.58.02,11.47-1.56,20.43-.62,3.48-1.46,7.27-3,15.04-1.58,7.93-2.19,11.42-2.93,15.56-3.53,19.91-3.43,31.9.54,36.54-7.96,3.38-13.84,4.73-18.43,3.58ZM418.5,251.07c-8.96-1.59-17.53,8.19-18.94,16.15-2.23,12.61,2.8,18.97,11.26,20.47,8.63,1.53,19.48-8.53,23.09-15.42l2.63-5.18-3.79-5.63c-3.11-4.66-8.44-9.36-14.24-10.39Z"/>
          <path class="cls-2" d="M466.11,336.88c-7.06-1.25-10.2-7.47-9.09-13.74,1.15-6.47,6.86-11.32,14.11-10.04,5.69,1.01,9.91,6.81,8.8,13.08-1.08,6.08-6.57,11.98-13.82,10.69ZM501.89,236.47c-2.46,7.04-6.69,20.65-9.94,30.99-3.05,10.38-10.12,33.18-10.12,33.18l-12.8-3.08s13.14-50.24,13.69-55.6c.74-5.33,12.9-55.74,12.9-55.74l18.23,6.67s-9.7,36.49-11.96,43.57Z"/>
        </g>
      </g>
      <g>
        <path class="cls-1" d="M45.1,406.92c0-1.75-.25-3.65-.75-5.83-1.15-4.76-6.92-10.8-11.75-10.8-6.66,0-10.74,2.34-13.25,7.57-1.4,2.84-2.08,5.92-2.08,9.42,0,1.2.06,2.21.19,3.16.62,3.81,3.1,6.8,7.38,8.89,2.2,1.1,4.31,1.66,6.28,1.66.97,0,2.08-.15,3.46-.46,1.14,2.06,2.32,3.84,3.59,5.44,1.08,1.47,1.87,2.37,2.25,2.81l1.35,1.58.27-.17c1-.63,1.84-1.38,2.5-2.21l.19-.25-.21-.23c-2.5-2.85-4.56-5.61-6.14-8.2,4.44-2.19,6.69-6.35,6.69-12.38ZM29.93,406.28l-.24-.08-.16.19c-.75.9-1.17,3.04-1.19,3.13l-.07.35.35.09c1.04.26,1.87,1.2,2.31,2,.49.86.79,1.84,1.11,2.87.21.68.43,1.38.71,2.07-.43.06-.85.11-1.27.11-2.35,0-4.47-.65-6.46-1.97-2.04-1.36-3.27-3.1-3.63-5.15-.1-.82-.18-1.62-.18-2.46,0-2.65.47-5.07,1.45-7.4,1.71-3.93,4.79-5.84,9.42-5.84,3.32,0,7.71,4.54,8.43,7.81.33,1.42.5,2.92.5,4.45,0,3.17-.46,5.49-1.37,6.87-.72,1.04-1.76,1.88-3.07,2.5-.48-1.03-.85-2.09-1.21-3.11-.23-.66-.46-1.31-.71-1.95-.84-2.14-3.07-3.96-4.73-4.48Z"/>
        <path class="cls-1" d="M64.63,412.2c-.27-2.29-.37-4.78-.27-7.4v-.28s-.25-.09-.25-.09c-.94-.33-2.02-.36-3.3-.11l-.29.06-.02.29c-.05.88-.25,2.2-.6,3.93-.41,2.15-.66,3.26-.85,3.81-.34.77-.99,1.5-1.91,2.16-.93.63-1.84.95-2.71.95-1.11,0-1.82-.55-2.19-1.69-.21-.62-.3-1.75-.3-3.54,0-1.6.19-4.95.55-9.97l.02-.31-.3-.08c-.73-.2-1.78-.29-3.2-.29h-.35l-.03.35c-.14,1.8-.33,3.63-.51,5.41-.26,2.98-.37,4.98-.37,6.47,0,5.38,1.93,8.11,5.75,8.11,1.55,0,3.12-.52,4.52-1.5,1.22-.83,2.23-1.87,3.08-3.17.24,1.73.55,3.53.91,5.57l.17.96h.33c1.45-.06,2.5-.27,3.22-.66l.24-.13-.05-.27c-.56-2.97-.99-5.85-1.29-8.59Z"/>
        <path class="cls-1" d="M85,413.49c0-1.16,0-2.13.05-4.34.02-.87.04-1.56.05-2.14.02-.88.04-1.5.04-2.08,0-2.81-.18-4.57-.57-5.7-.63-2.21-1.97-3.67-3.98-4.32-1.05-.38-2.2-.58-3.41-.58-2.68,0-4.86.64-6.66,1.97l-.15.11v.19c0,.66.16,1.42.34,2.22.25.95.5,1.61,1.01,2.01l.26.2.23-.23c.31-.31.92-.81,2.07-1.41.67-.31,1.36-.52,2.11-.62.62-.09,1.25-.09,1.8-.09.47,0,.83.05,1.19.17.79.24,1.34,1.2,1.54,2.71.07.47.09,1.12.11,2.41l.06,4.07c-1.62-1.08-3.36-1.63-5.17-1.63s-3.46.58-4.78,1.71c-1.41,1.21-2.42,3.03-2.94,5.24-.19.81-.29,1.62-.29,2.4,0,2.24.81,4.08,2.4,5.47,1.47,1.28,3.22,1.9,5.34,1.9s3.9-.94,5.65-2.88l.04,5.31.35.02c.09,0,.18,0,.27,0,1.26,0,2.75-.6,4.77-1.92l.43-.28-.4-.33c-1.17-.96-1.76-4.18-1.76-9.57ZM75.73,419.46c-2.39,0-3.65-1.6-3.65-4.62,0-1.97,1.67-4.9,3.98-4.9,1.59,0,3.19,1.08,4.08,2.02l1.14,1.18-.4,1.31c-.63,2-3.01,5.02-5.15,5.02Z"/>
        <path class="cls-1" d="M103.04,399.07c-3-1.15-6.11.31-9.04,4.21-.05-2.22-.12-3.97-.12-3.97v-.32s-.33-.03-.33-.03c-1.33-.14-2.85.04-3.5.19l-.32.07.03.32c0,.08.69,8.39.6,11.49-.04,3.11-.46,11.52-.46,11.61l-.02.43,4.02-.34v-.36s-.1-2.65-.06-4.78l.28-6.31v-2.78l.25-.3c1.81-2.22,4.84-5.94,7.25-5.04,2.78,1.09,2.22,4.7,1.8,7.34-.05.32-.1.63-.14.92-.06.42-.15.93-.26,1.52-.21,1.17-.47,2.62-.62,4.05-.11,1.03-.17,2.05-.22,2.95-.05.93-.1,1.74-.19,2.26l-.06.36,4.78.9-.04-.49c-.18-2.5.18-8.68.51-10.98l.09-.64c.66-4.49,1.49-10.08-4.22-12.26Z"/>
        <path class="cls-1" d="M126.37,401.25l-1.83.11c-2.32.18-4.68.4-6.91.61,0-1.81,0-3.26.09-4.29.16-3.05.31-5.41.43-7.13.05-.81.1-1.47.13-1.99l.11-1.85-.25-.1c-.88-.34-2.02-.45-3.37-.3l-.31.03-.02.31c-.36,4.76-.57,8.2-.65,10.79-.09,1.2-.09,2.85-.09,4.92-.94.1-2.79.24-3.65.24h-.38v3.98l.41-.04c.89-.09,2.1-.17,3-.24.29-.02.55-.04.75-.05v5.75c-.05,3.2-.05,5.24-.05,6.11-.05,4.35,1.17,6.81,3.63,7.31.43.1.88.15,1.28.15,2.98,0,5.09-2.48,6.29-7.37l.05-.2-.14-.15c-.72-.77-1.57-1.11-2.54-1l-.26.03-.06.25c-.55,2.21-1.41,3.33-2.55,3.33s-1.71-1.52-1.71-4.53c0-4.65-.03-7.74-.04-9.29v-.69c2.01-.15,3.75-.14,5.27-.15,1.34,0,2.49,0,3.42-.11l.28-.03.05-.27c.23-1.24.21-2.99-.26-3.94l-.11-.22Z"/>
        <path class="cls-1" d="M144.63,402.1c-1.87-1.64-3.73-2.53-5.68-2.73-2.75-.19-5.17.68-7.18,2.6-2.04,1.9-3.08,4.25-3.08,6.99,0,3,.98,5.71,2.91,8.06,2.06,2.58,4.58,3.89,7.51,3.89,2.72,0,4.95-1.2,6.83-3.67h0c1.62-2.19,2.43-4.73,2.43-7.54,0-1.12-.12-2.05-.38-2.93-.45-1.61-1.58-3.18-3.36-4.67ZM141.74,415.76c-.87.5-1.81.69-2.72.56-1.52-.22-2.75-.76-3.63-1.61-1.43-1.38-2.32-2.93-2.43-4.25-.09-1.19-.14-1.98-.14-2.33,0-.79.6-1.68,1.24-2.62l.37-.55c.77-1.11,1.82-1.64,3.21-1.64s2.77.49,4.1,1.46c1.29.87,2.12,1.91,2.49,3.08.15.6.22,1.17.22,1.8,0,2.07-.32,3.54-1.01,4.63-.34.6-.9,1.1-1.67,1.48Z"/>
        <path class="cls-1" d="M181.81,399.01l-1.51,2.82c-1.97,3.57-3.86,7.85-5.24,10.97-.4.91-.76,1.72-1.06,2.38-1.24-1.89-2.65-4.22-4.09-7.62-1.95-4.57-3.06-7.27-3.7-9.01l-.1-.28-.29.04c-1.62.2-2.96.74-4.21,1.7l-.25.19.14.28c.81,1.62,1.63,3.2,2.44,4.76.58,1.12,1.16,2.24,1.72,3.33.76,1.62,1.6,3.25,2.27,4.55.64,1.25,1.4,2.54,2.25,3.84,1.91,2.75,3.24,4.8,4.07,6.1l.36.57.29-.61c2.28-4.77,4.38-9.26,6.06-12.87,1.38-2.95,2.46-5.28,3.01-6.38l1.52-2.88-3.68-1.87Z"/>
        <path class="cls-1" d="M201.69,413.49c0-1.16,0-2.13.05-4.34.02-.87.04-1.56.05-2.14.02-.88.04-1.5.04-2.08,0-2.81-.18-4.57-.57-5.7-.63-2.21-1.97-3.67-3.98-4.32-1.05-.38-2.2-.58-3.41-.58-2.68,0-4.86.64-6.66,1.97l-.15.11v.19c0,.66.16,1.42.34,2.22.25.95.5,1.61,1.01,2.01l.26.2.23-.23c.31-.31.92-.81,2.07-1.41.67-.31,1.36-.52,2.11-.62.62-.09,1.25-.09,1.8-.09.47,0,.83.05,1.19.17.79.24,1.34,1.2,1.54,2.71.07.47.09,1.12.11,2.41l.06,4.07c-1.62-1.08-3.36-1.63-5.17-1.63s-3.46.58-4.78,1.71c-1.41,1.21-2.43,3.03-2.94,5.24-.19.81-.29,1.62-.29,2.4,0,2.24.81,4.08,2.4,5.47,1.47,1.28,3.22,1.9,5.34,1.9s3.9-.94,5.65-2.88l.04,5.31.35.02c.09,0,.18,0,.27,0,1.26,0,2.75-.6,4.77-1.92l.43-.28-.4-.33c-1.17-.96-1.76-4.18-1.76-9.57ZM192.43,419.46c-2.39,0-3.65-1.6-3.65-4.62,0-1.97,1.67-4.9,3.98-4.9,1.59,0,3.19,1.08,4.08,2.02l1.14,1.18-.4,1.31c-.63,2-3.01,5.02-5.15,5.02Z"/>
        <path class="cls-1" d="M212.11,415.89c-.05-1.1-.04-2.21-.02-3.29.01-1.09.02-2.21-.02-3.33-.22-3.99-.54-7.65-.85-11.19-.14-1.64-.28-3.22-.4-4.74-.18-3.01-.14-6.1.14-9.52l-.27-1.92-.3-.02c-2.15-.15-3.56-.03-4.44.36l-.26.12.27,1.85c.46,3.75.76,6.73.92,9.38.22,2.99.45,5.68.66,8.06.26,3.02.49,5.64.59,7.71.18,3.97.14,6.42.1,7.53v.1c.09,2.42.14,5.7.14,5.73v.4s4.61-.4,4.61-.4l-.18-.47c-.34-.86-.59-3.24-.67-6.36Z"/>
        <path class="cls-1" d="M226.15,395.11c-3.9-.29-6.85,2.17-8.8,7.32-.69,1.78-1.04,3.67-1.04,5.6,0,3.15.76,6.2,2.27,9.07,1.17,2.19,3.07,3.95,5.67,5.25,1.75.92,3.71,1.57,5.99,1.98l1.83.32.13-.22c1.12-1.91,1.76-3.65,1.95-5.33l.05-.48-.48.07c-1.12.16-1.92.23-2.68.23-5.58,0-9.03-2.38-10.28-7.06l14.35-2.67v-.31c.15-8.75-2.87-13.38-8.95-13.76ZM230.28,406.1l-10.03,1.85c.03-1.9.5-3.79,1.4-5.63,1.08-2.2,2.37-3.27,3.96-3.27.09,0,.18,0,.27.01,1.84.08,3.1.9,3.75,2.41h0c.38.88.6,2.44.66,4.63Z"/>
        <path class="cls-1" d="M259.64,398.58c-6.35,0-9.77,5.77-9.77,11.21s3.06,11.76,9.77,11.76c6.32,0,9.73-6.39,9.73-12.41s-4-10.56-9.73-10.56ZM260.05,417.33c-4.82,0-5.83-4.05-5.83-7.45,0-3.17,1.56-7.63,5.04-7.63s6.38,4.01,6.38,7.17c0,2.76-1.92,7.91-5.6,7.91Z"/>
        <path class="cls-1" d="M291.89,406.13c-2.39-.91-4.29-1.63-4.38-3.31-.06-1.06.17-1.87.67-2.41.57-.61,1.54-.9,2.94-.9s2.25,1.9,2.45,3.25l.05.35,3.99-.34v-.35c-.2-6.27-2.8-6.75-6.45-6.75-2.68,0-4.61.63-5.9,1.93-1.17,1.19-1.76,2.92-1.74,5.16.03,4.48,3.74,5.92,7.02,7.19,3.08,1.2,5.99,2.32,5.99,5.67,0,2.98-2.28,5.32-5.18,5.32-1.84,0-3.03-.39-3.64-1.19-.68-.89-.7-2.32-.07-4.63l.13-.46-4.33-.11v.38c-.1,3.57.18,6.3,1.86,8.01,1.22,1.26,3.11,1.87,5.78,1.87,5.28,0,9.26-3.78,9.26-8.8,0-6.65-4.68-8.43-8.44-9.86Z"/>
        <path class="cls-1" d="M319.32,414.9c-1.26,1.82-3.81,3.77-5.62,3.77-3.2,0-5.85-2.52-6.99-6.6l14.35-2.53v-.31c.15-8.26-2.87-12.64-8.96-13.02-3.96-.25-6.92,2.03-8.84,6.76-.65,1.63-1,3.52-1,5.46,0,2.78.7,6.83,2.27,9.63,1.08,1.94,4.49,5.01,9.08,5.01,5.64,0,8.37-5.76,8.49-6l.12-.26-2.66-2.26-.24.34ZM316.24,406.61l-10.03,1.77c.03-1.8.49-3.52,1.4-5.26,1.1-2.11,2.42-3.14,4.03-3.14.06,0,.13,0,.19,0,1.89.13,3.12.87,3.76,2.28.38.83.59,2.29.65,4.35Z"/>
        <path class="cls-1" d="M341.39,414.64c-.05-.47-.09-.94-.15-1.41-.23-2.25-.46-8-.09-13.83l.02-.29-.28-.09c-.96-.31-2.1-.34-3.29-.1l-.29.06-.02.29c-.01.19-.03.72-.05,1.46-.07,2.45-.21,7.53-.46,8.91-.45,2.49-.96,4.5-3.04,5.96-1,.68-1.86,1-2.71,1s-1.4-.2-1.8-.6c-.8-.81-.79-2.42-.79-3.85v-.45c0-1.62.45-7.89.83-13.17l.02-.31-.3-.08c-.78-.21-1.85-.29-3.21-.24h-.33s-.03.34-.03.34c-.09.91-.15,2.09-.21,3.24-.06,1.13-.12,2.31-.21,3.2-.06.7-.13,1.48-.21,2.28-.22,2.34-.44,4.76-.44,5.95,0,5.41,1.95,8.15,5.79,8.15,1.48,0,3-.52,4.52-1.55,1.19-.8,2.19-1.85,3.04-3.17.02.19.05.37.07.55.19,1.44.35,2.68.76,4.21l.08.28h.29c1.22,0,2.33-.2,3.21-.59l.31-.14-.11-.32c-.55-1.7-.75-3.63-.95-5.69Z"/>
        <path class="cls-1" d="M366.64,395.11c-3.91-.29-6.85,2.17-8.8,7.32-.69,1.78-1.04,3.67-1.04,5.6,0,3.15.76,6.2,2.27,9.07,1.17,2.19,3.07,3.95,5.67,5.25,1.75.92,3.71,1.57,5.99,1.98l1.83.32.13-.22c1.12-1.91,1.76-3.65,1.95-5.33l.05-.48-.48.07c-1.12.16-1.92.23-2.68.23-5.58,0-9.03-2.38-10.28-7.06l14.35-2.67v-.31c.15-8.75-2.87-13.38-8.95-13.76ZM370.76,406.1l-10.03,1.85c.03-1.9.5-3.79,1.4-5.63,1.08-2.2,2.37-3.27,3.96-3.27.09,0,.18,0,.27.01,1.84.08,3.1.9,3.75,2.41h0c.38.88.6,2.44.66,4.63Z"/>
        <path class="cls-1" d="M386.96,406.13c-2.39-.91-4.29-1.63-4.38-3.31-.06-1.06.17-1.87.67-2.41.57-.61,1.54-.9,2.94-.9s2.25,1.9,2.45,3.25l.05.35,3.99-.34v-.35c-.2-6.27-2.8-6.75-6.45-6.75-2.68,0-4.61.63-5.9,1.93-1.17,1.19-1.76,2.92-1.74,5.16.03,4.48,3.74,5.92,7.02,7.19,3.08,1.2,5.99,2.32,5.99,5.67,0,2.98-2.28,5.32-5.18,5.32-1.84,0-3.03-.39-3.64-1.19-.68-.89-.7-2.32-.07-4.63l.13-.46-4.33-.11v.38c-.1,3.57.18,6.3,1.86,8.01,1.22,1.26,3.11,1.87,5.78,1.87,5.28,0,9.26-3.78,9.26-8.8,0-6.65-4.68-8.43-8.44-9.86Z"/>
        <path class="cls-1" d="M411.7,386.84c-1.08-2.12-2.38-3.41-3.96-3.94-.96-.32-1.89-.48-2.76-.48-3.72,0-5.61,3.26-5.61,9.68,0,1.31.12,3.44.33,6l.08.95c.16,1.92.34,4.09.46,6.46l-2.41.28-1.03.06-.05.28c-.29,1.52-.15,2.69.44,3.49l.13.18.22-.03c1.19-.14,2.24-.27,2.94-.34l.1,1.93c.33,6.03.44,8.12.48,8.35.37,3.59.7,6.2.97,7.75l.27,1.86.29.03c.27.03.54.05.8.05.92,0,1.76-.2,2.56-.59l.25-.12-.32-1.89c-.39-2.53-.7-5.59-.92-9.09-.16-2.07-.27-4.12-.39-6.17-.05-.87-.1-1.74-.15-2.62l5.53-1.19,1.78-.43.03-.26c.15-1.25-.1-2.4-.75-3.4l-.14-.22-1.79.43c-2.17.52-3.74.89-4.99,1.13-.51-5.72-.75-9.5-.75-11.87s.18-4.24.55-5.56c.28-1.24.91-1.24,1.12-1.24.29,0,.79.05,1.54.3.37.13.97.61,1.73,2.12.32.67.68,1.69,1.1,3.02l.6,1.79h.28c1.28-.06,2.34-.42,3.23-1.11l.21-.16-.08-.25c-.91-2.84-1.47-4.39-1.88-5.19Z"/>
        <path class="cls-1" d="M429.62,402.1c-1.87-1.64-3.73-2.53-5.68-2.73-2.75-.19-5.17.68-7.18,2.6-2.04,1.9-3.08,4.25-3.08,6.99,0,3,.98,5.71,2.91,8.06,2.06,2.58,4.58,3.89,7.51,3.89,2.72,0,4.95-1.2,6.83-3.67h0c1.62-2.19,2.43-4.73,2.43-7.54,0-1.12-.12-2.05-.38-2.93-.45-1.61-1.58-3.18-3.36-4.67ZM426.74,415.76c-.87.5-1.8.69-2.72.56-1.52-.22-2.75-.76-3.63-1.61-1.43-1.38-2.32-2.93-2.43-4.25-.09-1.19-.14-1.98-.14-2.33,0-.79.6-1.68,1.24-2.62l.37-.55c.77-1.11,1.82-1.64,3.21-1.64s2.77.49,4.1,1.46c1.29.87,2.12,1.91,2.49,3.08.15.6.22,1.17.22,1.8,0,2.07-.32,3.54-1.01,4.63-.34.6-.9,1.1-1.67,1.48Z"/>
        <path class="cls-1" d="M445.85,396.41c-1.87.04-3.94,1.26-6.31,3.7.09-1.23.18-2.13.24-2.72.03-.24.05-.44.05-.55l.31-2.2-4.98,1.45.03.31c.18,1.79.28,4.06.28,6.77,0,5.53-.04,9.55-.23,11.17-.09,1.06-.14,3.49-.13,5.28l-.41,1.99,5,.44-.06-2.09c-.09-2.27-.19-4.62-.23-6.89-.1-3.65-.03-5.94.04-7.05.29-.29.58-.62.91-.98.23-.25.46-.51.72-.79,2.32-2.59,4.16-3.9,5.46-3.9,1.12,0,1.85,1.05,1.85,2.68v4.22l.33.04c1.26.14,3.12.1,3.2.1h.36s.05-4.85.05-4.85c.06-1.92-1.09-3.35-1.95-4.25-1.2-1.3-2.71-1.92-4.54-1.88Z"/>
        <path class="cls-1" d="M470.84,416.14c-1.67,1.03-3.53,1.92-5.54,2.65-.58.22-1.58.29-2.99.21-1.85-.11-2.46-.41-2.58-.48-.74-.56-1.52-3.65-1.29-6.06.42-4.91.81-9.55,6.57-10.25.66-.08,1.59.5,2.79,1.69l1.39,1.45,2.29-3.37-.87-.87c-1.66-1.66-3.64-2.6-5.88-2.79-2.29-.19-4.45.49-6.42,2.03-3.53,2.86-3.84,6.67-4.17,10.77-.39,4.26,1.01,8.9,3.2,10.56.92.7,3.3,1.15,4.72,1.28h.24c1.17,1.41,1.46,2.53.95,3.62-.05.11-.13.23-.21.34-.35-.49-.85-.86-1.42-1.04-1.53-.51-3.32.44-3.88,1.63-.22.49-.24.98-.05,1.43.28.64.98,1.19,1.98,1.53.63.2,1.22.3,1.77.3,2.25,0,3.82-1.54,4.61-3.22.91-1.92.66-3.32-.08-4.75.06-.02.12-.03.19-.05h.03c2.06-.62,4.71-1.9,5.55-2.41l.21-.13-.63-4.38-.49.3Z"/>
        <path class="cls-1" d="M483.12,398.58c-6.35,0-9.77,5.77-9.77,11.21s3.06,11.76,9.77,11.76c4.83,0,9.73-4.26,9.73-12.41,0-6.22-4-10.56-9.73-10.56ZM483.53,417.33c-4.82,0-5.83-4.05-5.83-7.45,0-3.17,1.56-7.63,5.04-7.63s6.38,4.01,6.38,7.17c0,2.76-1.92,7.91-5.6,7.91Z"/>
        <path class="cls-1" d="M502.93,385.9c-3.01,0-5.33,1.06-7.88,2.65l-.31.2,2.38,3.94.32-.21c.39-.26.77-.52,1.14-.79,1.38-.99,2.57-1.84,4.35-1.84,2.55,0,4.07,1.64,4.07,4.39,0,2.12-1.52,3.82-3.22,5.52l-.5.49c-1.78,1.72-3.62,3.5-4.36,5.82-.46,1.39-.5,3.19-.1,4.71l.08.31,3.84-.4-.09-.41c-.24-1.09-.2-2.15.13-3.13.58-1.74,2.02-3.09,3.54-4.52l.46-.43c2.25-2.02,4.58-4.1,4.58-7.2,0-5.09-3.7-9.08-8.43-9.08Z"/>
        <path class="cls-1" d="M503.39,417.1c-1.34,0-3.52,1.79-3.52,3.2,0,1.5,1.68,2.78,3.06,2.78,1.78,0,2.97-1.87,2.97-3.62,0-1.42-1.01-2.37-2.5-2.37Z"/>
      </g>
    </g>
  </g>
</svg>